<svg xmlns="http://www.w3.org/2000/svg" width="681" height="693" class="img-fluid" style="transform:matrix(1,0,0,1,0,0);transform-origin:50% 50%0;cursor:move;max-height:417.28px;transition:none" viewBox="0 0 6810 6930"><defs><radialGradient id="a" cx="28%" cy="32%" r="100%" gradientUnits="userSpaceOnUse"><stop offset="0%" style="stop-color:#7a88c8"/><stop offset="14%" style="stop-color:#3d4fa3"/><stop offset="44%" style="stop-color:#4354a6"/><stop offset="83%" style="stop-color:#324192"/><stop offset="100%" style="stop-color:#000"/></radialGradient></defs><path fill="#281C4C" d="M3235 6920c-1197-105-2161-642-2738-1526a3137 3137 0 0 1 163-3623c157-202 437-466 674-635 221-158 556-334 814-426 34-13 62-27 62-32 0-4-15-39-34-76-18-37-41-91-51-121-17-52-17-54 2-73 31-31 189-51 348-45 145 6 233 23 327 62 101 43 98 43 138-26 19-34 62-91 94-126 96-105 325-273 372-273 23 0 182 107 276 184 77 64 154 153 195 225 15 28 32 51 37 51s47-15 95-34c161-65 368-83 486-44 69 23 69 33 4 195-7 18-11 35-8 38 3 2 59 21 124 41 468 143 943 431 1300 789 585 584 895 1352 895 2215 0 409-50 733-167 1094-317 977-1080 1715-2088 2021-201 61-393 101-620 131-142 18-556 26-700 14z" style="transform:none"/><g fill="#2D3784" style="transform:none"><path d="M3395 6824c-241-12-596-62-778-108-289-75-708-230-881-327-50-29-134-82-186-118-52-37-121-82-152-101a2722 2722 0 0 1-628-578c-47-62-106-140-132-172-79-100-207-329-285-510a3088 3088 0 0 1-49-2309c191-490 511-925 919-1249 301-239 651-438 954-542l81-28 8 36c4 21 8 57 8 82 1 25 8 90 16 145l15 99 75 76c59 59 96 85 170 123 91 46 190 76 255 77 26 0 20-6-45-41-41-22-90-52-108-66s-65-47-105-74c-40-26-93-68-119-93l-48-44V912l38 10c103 27 180 78 305 202 108 107 205 186 228 186 5 0 23-13 41-28 18-16 111-81 206-146l173-118 82 55c45 30 129 93 187 141 58 47 111 86 118 86 21 0 161-122 245-215 43-47 93-93 110-101 37-20 165-64 184-64 10 0 13 23 13 94v95l-62 55c-76 67-214 156-342 221-52 27-93 52-90 57s33 6 67 2c113-11 336-133 453-248l64-62V978c0-136 3-164 21-212 16-42 26-55 38-52l76 20c34 9 110 36 170 62 61 25 132 52 158 60 157 48 586 304 743 444 238 213 256 232 462 478 192 230 394 601 491 904 27 87 91 362 105 453 20 133 36 380 36 572 0 328-37 591-126 899a2973 2973 0 0 1-1639 1914c-178 76-438 167-566 200-261 67-725 116-974 104z"/><path d="M2898 1155a576 576 0 0 1-153-160l-19-37 44-39c124-107 300-151 615-153 77-1 169-7 205-15 36-7 85-13 110-13 56 0 35-9-77-34-59-13-125-17-273-17-181 0-201 2-280 26-236 72-301 100-363 157l-51 47-51-19-71-28c-16-6-23-22-32-77-12-70-44-157-62-168-13-8-13-8 5 40 8 22 14 68 15 103 0 58-1 62-22 61-13 0-30-3-39-7s-56-83-104-176c-79-155-85-170-68-180 10-6 93-10 193-11 160 0 183 2 271 27 53 15 129 42 169 62 54 26 78 32 87 24 7-5 28-42 47-82 53-110 170-228 353-356l61-43 116 86c63 48 143 115 177 149 62 64 132 171 144 221 9 36 27 35 138-13 51-22 127-47 168-56 72-16 281-25 294-13 3 4-23 72-59 151-36 80-68 158-72 173-7 27-9 29-56 39-27 6-28 5-28-31 0-55 28-181 46-209 15-21 15-24 1-24-23 0-73 46-91 84-11 23-16 62-16 123v89l-55 23-55 23-42-35c-50-41-158-100-167-91-3 3 6 15 21 27 30 25 103 80 131 100 18 13 18 14-5 48-32 47-196 198-223 205-31 8-298-164-305-197-8-37-84-72-139-65-64 9-91 29-91 69 0 31-7 38-99 98-148 95-188 119-197 118-5 0-25-11-46-24z"/></g><g fill="#344294" style="transform:none"><path d="M3395 6824c-241-12-596-62-778-108-288-75-708-230-881-327-143-81-226-146-147-116 22 8 39 8 68-2 21-7 47-12 58-12 88 1 106 4 129 22 13 10 34 38 45 62 11 23 40 64 63 90 42 46 49 50 241 117 110 39 215 70 235 70 50 0 302 26 487 51 83 11 211 25 285 32 209 19 612-1 775-39a2317 2317 0 0 0 595-158c41-19 125-53 185-76 61-24 137-57 170-75a3034 3034 0 0 0 780-565c17-14 60-63 96-110 37-47 75-92 84-100 58-48 173-218 224-332 16-35 52-100 80-145 82-132 138-259 176-398 89-325 120-454 131-555 3-19 7-42 10-50s8-40 10-70c3-30 10-73 16-95 11-40 16-89 39-359 10-120 10-187 0-343-7-106-14-206-17-221l-14-77-16-105c-3-30-19-107-34-170-16-63-33-142-40-175l-16-77c-3-10-1-18 5-18 10 0 97 214 130 322 20 68 84 351 95 423 20 133 36 380 36 572 0 328-37 591-126 899a2973 2973 0 0 1-1639 1914c-178 76-438 167-566 200-261 67-725 116-974 104z"/><path fill="url(#a)" d="M1447 5900c-589-238-790-312-1094-990a3088 3088 0 0 1-49-2309c191-490 511-925 919-1249 301-239 651-438 954-542l81-28 8 36c4 21 8 57 8 82 1 25 8 90 16 145l15 99 75 76c59 59 96 85 170 123 91 46 190 76 255 77 26 0 20-6-45-41-41-22-90-52-108-66s-65-47-105-74c-40-26-93-68-119-93l-48-44V912l38 10c103 27 180 78 305 202 108 107 205 186 228 186 5 0 23-13 41-28 18-16 111-81 206-146l173-118 82 55c45 30 129 93 187 141 58 47 111 86 118 86 21 0 161-122 245-215 43-47 93-93 110-101 37-20 165-64 184-64 10 0 13 23 13 94v95l-62 55c-76 67-214 156-342 221-52 27-93 52-90 57 9 14 124-2 174-24 38-16 58-18 130-12 83 6 87 5 155-29 128-65 134-80 127-345-5-191-4-204 18-262 17-46 27-59 39-56l76 20c34 9 110 36 170 62 61 25 132 52 158 60 621 207 1069 1393 1024 2159-66 690-89 1279-642 1849-762 837-1907 1565-3798 1036z"/><path d="M3610 1070c-97-63-136-94-140-111-8-37-84-72-139-65-64 9-91 29-91 69 0 31-7 38-101 100-56 37-108 67-115 67-43 0-144-80-144-114 0-29 44-63 158-121 69-36 72-39 72-74v-37l98-11c132-15 293-6 309 17 12 17 79 36 223 60 119 21 151 60 95 116-32 32-31 38 5 84l31 39-47 35c-26 20-54 36-63 35-9 0-77-40-151-89z"/><path d="M2399 822c-9-4-56-83-104-176-79-155-85-170-68-180 10-6 93-10 193-11 160 0 183 2 271 27 53 15 129 42 169 62 54 26 78 32 87 24 7-5 28-42 47-82 53-110 170-228 353-356l61-43 116 86c63 48 143 115 177 149 62 64 132 171 144 221 9 36 27 35 138-13 51-22 127-47 168-56 72-16 281-25 294-13 3 4-23 72-59 151-36 80-68 158-72 173-7 27-9 29-56 39-27 6-28 5-28-31 0-55 28-181 46-209 15-21 15-24 1-24-9 0-30 12-47 27-25 21-34 23-40 13-7-11-20-3-59 33-39 37-57 47-83 47-55-1-168-26-263-58-49-17-126-38-170-47-132-27-159-40-204-100-23-30-41-62-41-72 0-22-17-50-25-42-3 3-25 47-49 97-25 50-53 95-64 101-23 12-236 61-266 61-11 0-81 29-155 65-73 36-140 65-148 65-21 0-65-25-112-64-24-20-53-36-66-36-12 0-28-7-35-15-19-23-21-14-5 30 8 22 14 68 15 103 0 58-1 62-22 61-13 0-30-3-39-7z"/></g><g fill="#3F4FA3" style="transform:none"><path d="M3395 6824c-241-12-596-62-778-108-169-44-477-145-477-157 0-22 32-17 138 21 62 22 130 40 150 40 50 0 302 26 487 51 83 11 211 25 285 32 209 19 612-1 775-39a2317 2317 0 0 0 595-158c41-19 125-53 185-76 61-24 137-57 170-75a3034 3034 0 0 0 780-565c17-14 60-63 96-110 37-47 75-92 84-100 58-48 173-218 224-332 16-35 52-100 80-145 82-132 138-259 176-398 89-325 120-454 131-555 3-19 7-42 10-50s8-40 10-70c3-30 10-73 16-95 11-40 16-89 39-359 10-120 10-187 0-343-7-106-14-206-17-221l-14-77-16-105c-3-30-19-107-34-170-16-63-33-142-40-175l-16-77c-3-10-1-18 5-18 10 0 97 214 130 322 20 68 84 351 95 423 20 133 36 380 36 572 0 328-37 591-126 899a2973 2973 0 0 1-1639 1914c-178 76-438 167-566 200-261 67-725 116-974 104z"/><path fill="url(#a)" d="M2193 5623c-7-2-13-11-13-20 0-8-6-13-12-10-7 2-20 1-29-4-11-6-21-3-30 7-10 12-14 12-20 2-7-10-9-10-9 1 0 10-3 11-14 2-10-8-16-9-21-1-7 12-45 14-45 2 0-14-77-33-106-26-25 7-26 6-22-37 3-42 2-43-30-50-19-4-48-21-65-37-26-25-39-30-69-27-20 2-46 9-58 15-13 7-37 9-61 5-31-5-40-3-45 10-6 14-9 14-23 2-9-8-30-21-47-29-34-16-58-9-112 33-22 17-24 17-48-4-19-17-23-27-18-49 5-25-2-37-58-94-61-62-65-65-92-54-31 11-51-2-41-27 4-12 0-15-27-17-12-1-56-48-88-95s-80-92-90-86c-7 4-20-2-31-14s-25-18-31-15c-7 5-9 1-5-9 3-9 0-23-8-31-8-7-12-16-9-18 2-3-9-5-26-6-16 0-30 4-30 9 0 6-17 8-43 4-41-6-46-4-94 39-28 25-59 47-69 49-11 1-25 6-32 10-7 5-21 5-32 2-31-10-34 17-9 74 35 82 15 70-34-21a3057 3057 0 0 1-311-968c-62-414-31-882 84-1293a3009 3009 0 0 1 1003-1495c301-239 651-438 954-542l81-28 8 36c5 21 7 46 6 57-4 30 28 241 48 317 11 40 31 83 48 103 35 43 213 148 297 176 109 37 339 49 368 20 13-13-115-71-179-80-50-7-137-49-202-98-18-14-65-47-105-74-40-26-93-68-119-93l-48-44V912l38 10c103 27 180 78 305 202 108 107 205 186 228 186 5 0 23-13 41-28 18-16 111-81 206-146l173-118 82 55c45 30 129 93 187 141 58 47 111 86 118 86 21 0 161-122 245-215 43-47 93-93 110-101 37-20 165-64 184-64 10 0 13 23 13 94v95l-62 55c-130 115-382 256-503 280-38 8-90 24-115 35l-45 21 50-7c28-3 60-10 73-14 40-15 125-10 167 10 126 60 154 61 213 10 18-16 36-29 41-29s23-13 42-29c18-16 62-44 98-61 83-41 99-55 121-106 16-35 17-64 12-242-4-175-3-207 12-247 10-25 24-45 32-45 12 0 11 7-5 38l-19 37 34 50c45 67 122 129 140 114 10-8 14-8 14 0s7 7 25-1 28-8 39 1c10 9 16 9 21 1s11-6 19 6c8 11 18 14 26 9 25-15 124-11 150 6 14 9 41 20 60 24 43 9 60 22 60 45 0 21 33 60 50 60 7 0 10 6 7 14s4 24 16 37c13 14 24 43 28 73a3259 3259 0 0 0 53 308c4 15 14 29 24 32 10 4 28 20 40 36 22 29 22 33 9 97-17 83-7 131 36 176 16 18 47 54 68 81 35 43 38 51 25 65-12 13-12 18-1 28 7 6 15 9 18 7 3-3 16 2 30 11 21 14 24 22 22 62-2 25 2 58 8 71 9 20 9 26-1 30-6 2-12 11-12 21 0 16-18 28-92 62-24 11-27 19-30 72-2 36 1 62 9 68 6 6 20 29 31 53 11 23 27 48 35 54 15 12 47 7 47-8 0-5 17-4 37 2 31 8 39 7 49-7 14-19 64-14 64 7 0 6 8 17 18 24 16 12 16 13 0 14-9 0-20-4-23-10-11-18-42 24-54 75-8 34-9 64-3 91 7 33 6 44-9 62-21 27-14 59 24 101 29 33 34 71 21 176-6 45-10 53-47 75-61 38-64 44-72 119-6 63-5 73 14 97 28 36 29 114 1 139-11 10-19 27-18 39 2 22-25 66-68 113-33 35-30 52 16 120 39 56 40 60 26 87-16 32-40 50-77 59-21 5-28 14-33 45-3 21-15 47-27 58-20 17-21 26-15 102 3 45 3 82 0 82s-21-7-39-16c-51-24-80-16-80 22 0 17-6 38-13 46-7 9-11 20-10 24 2 5-3 28-11 52-14 41-27 49-77 43-6-1-25 13-43 31-28 29-31 38-29 85 2 51 1 54-46 98-27 24-52 42-57 39s-9 2-9 10c0 9-6 16-14 16-9 0-12 7-9 20 3 11 0 20-6 20-19 0-32 48-19 69 9 15 8 24-5 44-9 14-14 33-11 41 4 11 0 14-15 11-14-2-34 7-55 26-19 16-40 29-47 30-8 0-25 14-38 30-21 28-22 33-12 76 12 47 6 62-25 63-7 0-15 7-18 16-5 14-17 16-79 10-39-4-82-14-94-22-31-20-38-18-76 16-19 17-40 30-46 30s-11 14-11 30c0 27-3 30-30 30-30 0-43 23-17 33 12 5-17 11-40 8-7-1-13 5-13 14 0 8-5 15-10 15-6 0-9 3-9 8 1 4-5 22-12 40-10 25-18 32-33 28-19-5-56 9-67 25-3 5-30 12-60 15-88 10-137 21-155 36-8 6-17-4-28-29-8-21-34-58-56-82-37-40-42-43-56-29-19 18-33 78-34 134 0 56-19 61-71 19-22-19-44-35-48-35s-37 20-74 44l-67 44-37-19c-49-25-114-15-204 32-42 21-98 18-117-8-13-17-14-17-23 0-9 14-14 16-25 6-8-6-32-14-54-16-34-4-45 0-82 31-48 42-52 42-85 16-31-24-54-25-94-5-16 9-33 13-38 10-5-2-11 2-15 10-13 36-102 8-168-53-33-30-56-24-117 29-24 22-52 39-62 39s-24 7-33 15c-8 8-16 15-18 14l-15-6z"/><path d="M4230 793c0-55 28-181 46-209 15-21 15-24 1-24-9 0-30 12-47 27-25 21-34 23-40 13-7-11-20-3-59 33-39 37-57 47-83 47-55-1-168-26-263-58-49-17-126-38-170-47-132-27-159-40-204-100-23-30-41-62-41-72 0-22-17-50-25-42-3 3-25 47-49 97-25 50-53 95-64 101-23 12-236 61-266 61-11 0-81 29-155 65-73 36-140 65-150 65-20 0-78-34-113-67-21-20-25-30-19-51 5-15 6-32 4-39s1-21 7-33c9-16 8-25-2-37-10-13-30-15-111-11-54 3-102 9-108 15s6 39 35 94c31 58 47 102 51 142 12 97-14 69-110-117-79-155-85-170-68-180 10-6 93-10 193-11 160 0 183 2 271 27 53 15 129 42 169 62 54 26 78 32 87 24 7-5 28-42 47-82 53-110 170-228 353-356l61-43 116 86c63 48 143 115 177 149 62 64 132 171 144 221 9 36 27 35 138-13 51-22 127-47 168-56 72-16 281-25 294-13 3 4-23 72-59 151-36 80-68 158-72 173-7 27-9 29-56 39-27 6-28 5-28-31z"/></g><g fill="#4D5DAE" style="transform:none"><path d="M3395 6824c-241-12-596-62-778-108-169-44-477-145-477-157 0-22 32-17 138 21 62 22 130 40 150 40 50 0 302 26 487 51 83 11 211 25 285 32 209 19 612-1 775-39a2317 2317 0 0 0 595-158c41-19 125-53 185-76 61-24 137-57 170-75a3034 3034 0 0 0 780-565c17-14 60-63 96-110 37-47 75-92 84-100 58-48 173-218 224-332 16-35 52-100 80-145 82-132 138-259 176-398 89-325 120-454 131-555 3-19 7-42 10-50s8-40 10-70c3-30 10-73 16-95 11-40 16-89 39-359 12-143 6-337-18-577-5-56-5-56 25-67 23-8 33-7 40 1 17 21 51 226 67 395 60 648-39 1231-304 1784a2927 2927 0 0 1-897 1085 2845 2845 0 0 1-549 323c-178 76-438 167-566 200-261 67-725 116-974 104z"/><path fill="url(#a)" d="M447 5108a3082 3082 0 0 1-143-2507c276-706 811-1282 1526-1641 210-106 430-190 430-166 0 12-110 86-127 86-21 0-457 260-576 344-99 69-135 111-85 99 13-3 29-11 37-17 9-7 79-11 199-11 158 0 188 2 211 17 14 10 34 18 43 18s23 7 31 14c8 8 45 22 83 31s78 24 89 34 31 19 45 20l38 3c6 1 12 10 12 20 0 14 4 17 16 10 24-13 59-3 75 23 25 40 117 135 131 135 24 0 58 40 58 68 0 15-4 42-9 59-6 20-6 35 0 38 5 4 9 13 9 22s11 31 25 49 25 37 25 42 9 17 20 27c10 9 19 20 18 24-1 7 10 40 23 63 5 10 9 24 9 32s13 25 28 38c15 12 28 26 30 31l18 38c14 28 14 34 0 70-17 42-16 48 22 127 29 63 27 70-48 166-27 35-50 69-50 75s-6 12-12 12c-61 6-92 31-123 99-17 38-19 53-11 92 7 38 6 51-8 72-19 30-75 60-129 70-34 6-97 54-97 73 0 5-9 16-20 26-11 9-20 25-20 36 0 10-19 36-42 57-24 21-37 39-30 42 7 2 12 8 12 13 0 14-40 50-49 45-5-3-20 6-35 20-18 19-31 24-43 19-28-13-45-6-98 40-56 47-124 73-137 52-6-9-10-8-18 3-8 12-12 13-19 2-6-10-10-8-14 8-3 12-10 19-15 16-16-10-125 16-151 36-35 27-62 22-103-17-28-28-46-36-83-40-26-3-51-7-55-10-5-3-11-1-15 4-4 7-15 6-32-2-20-9-27-9-30 0-3 8-16 6-41-9-20-11-55-27-76-35-35-12-41-12-48 2-5 8-16 15-23 15-8 0-15 6-15 13 0 6-10 13-22 13l-55 7c-22 4-38 0-54-14a95 95 0 0 0-29-19c-10 0-30-72-30-107 0-42-26-100-50-113-11-6-42-37-69-70l-49-59 15-43c8-24 21-50 29-59 23-26 16-52-27-96-88-91-100-112-93-161 6-42 5-46-37-88-24-25-59-52-77-61-41-20-38-23-91 112-83 212-148 478-191 781-30 215-33 627-6 839 39 308 114 614 213 863 24 63 42 116 40 118-3 3-25-32-50-78z"/></g><g fill="#5B6BB7" style="transform:none"><path fill="url(#a)" d="M447 5108a3082 3082 0 0 1-143-2507c276-706 811-1282 1526-1641 210-106 430-190 430-166 0 11-110 86-127 86-2 0-64 34-136 75-373 211-655 405-588 405 5 0 12 10 16 22 3 13 8 18 11 12 3-8 15-8 42 1 24 9 41 10 49 4 7-6 12-6 15 0 1 6 14 12 28 15 14 2 27 5 30 7l67 3c43 1 67 7 81 19 10 9 25 17 33 17s26 6 40 14c14 7 36 16 50 19 13 4 40 17 59 29s41 23 49 24c8 2 17 6 20 11 13 18 45 13 70-10 41-38 65-47 130-47 52 0 65 4 91 27 33 30 38 55 26 129-7 41-7 42 39 70 106 66 144 102 150 141l17 93 13 72c1 10 4 21 8 24 12 12 8 24-6 18-8-3-19 7-27 23-8 15-27 38-42 51s-28 28-28 33-8 18-17 29a83 83 0 0 0-20 38l-9 56c-4 24-1 48 7 63 26 49-28 185-83 206-10 3-18 13-18 21s-8 17-19 21c-24 7-65 45-74 68-3 9-13 17-21 17-7 0-17 11-20 25-4 14-12 25-19 23-17-3-68 26-91 51-14 16-17 29-12 59 4 31 0 50-18 85-35 65-66 98-87 92-10-3-21-1-24 6-6 8-10 8-15-2-7-10-12-10-23-1-7 6-23 13-34 15-12 2-27 8-35 14-7 6-35 18-63 28-27 9-60 23-72 31-23 15-81 16-89 2-3-4-16-8-30-8-13 0-24-6-24-12 0-9-3-8-10 2-5 8-14 15-20 15s-14 5-18 10c-4 6-22 16-39 23l-61 23c-24 10-33 8-70-15-23-14-65-31-93-37-53-12-122-46-115-57 2-4-2-13-10-20-9-8-14-9-14-2s-5 6-14-2c-8-7-12-16-9-21 2-4-7-11-20-16s-42-30-65-56c-29-33-50-48-74-51-19-3-44-17-60-34-27-29-27-31-24-146 2-108 0-122-23-168-22-44-25-66-28-176a928 928 0 0 0-14-171c1-9-5-19-14-22-8-4-15-17-15-29 0-14-3-18-8-11-4 6-20 13-37 15-25 3-37 16-87 103a1777 1777 0 0 0-142 307c-80 195-153 489-196 794-30 215-33 627-6 839 39 308 114 614 213 863 24 63 42 116 40 118-3 3-25-32-50-78z"/><path d="M4270 793a643 643 0 0 1 70-268c0-7-88 7-125 20-77 25-105 26-132 5a93 93 0 0 0-44-20c-35 0-19-18 29-34 85-28 233-49 306-43 37 4 70 8 73 10 2 3-17 51-43 108s-60 136-75 174c-29 75-59 99-59 48z"/></g><path fill="url(#a)" d="M1453 2932c-13-2-23-8-23-13s-9-9-19-9c-11 0-39-8-63-18-24-11-49-17-56-15-6 3-42-19-79-49-80-63-153-95-153-65 0 26-60 106-91 122-52 27-99 22-131-14-50-55-32-152 38-209 31-26 33-31 24-61-5-19-7-38-4-43 3-4-2-22-10-40-19-36-21-104-5-114 8-5 10-39 6-116l-6-109 31-35c33-37 73-61 98-59 22 2 51-15 45-25-3-5 3-27 15-49 11-22 20-51 20-64 0-22 29-61 31-41 0 5 4-1 9-13 17-41 167-143 210-143 7 0 26-8 43-17l36-20c1-1-1-8-5-15-5-7-14-26-20-43-9-27-7-35 20-70 37-48 66-74 84-75 17 0 171 77 193 96 17 16 62 11 87-9 29-23 122-24 139-1 6 9 17 13 23 9s22 3 35 15l23 22 18-27c69-97 97-115 183-115 52 0 65 4 92 28 28 25 31 34 31 76-1 57-19 87-72 124-61 42-73 122-29 187 27 40 28 48 33 190 3 98 1 154-6 162-8 9-7 13 2 13s8 5-3 18a60 60 0 0 0-17 34c0 9-7 21-15 28-9 7-15 20-14 29 5 53-3 72-51 119-27 27-69 59-93 70s-56 36-70 56c-66 86-80 96-128 95-24-1-64 6-89 16-25 9-54 18-64 19-11 1-22 9-24 16a506 506 0 0 1-146 146c-25 12-35 13-83 6z" style="transform:none"/><g fill="#7a86c4"><path d="M447 5108a3082 3082 0 0 1-143-2507c276-706 811-1282 1526-1641 210-106 430-190 430-166 0 12-110 86-127 86-15 0-423 240-530 311a5280 5280 0 0 0-487 379 2845 2845 0 0 0-825 1555c-55 309-66 435-65 750 1 386 86 828 231 1193 24 63 42 116 40 118-3 3-25-32-50-78z"/><path fill="url(#a)" d="M1245 2582c-17-15-55-41-85-56-111-57-158-135-146-244 14-134 81-256 215-396a734 734 0 0 1 282-197c163-59 281-48 357 35 23 25 44 57 48 73 8 32 47 96 82 135 22 24 25 35 23 98-2 58 2 76 19 100 12 17 17 30 11 30s-11 16-11 36c0 43-25 88-57 103-12 6-23 16-23 22s-7 8-16 5-28 3-43 13c-15 11-40 23-57 26-16 4-38 10-49 15s-29 10-40 12-21 12-23 22c-5 24-83 136-104 150-12 7-25 3-53-19l-37-28-57 29c-31 16-58 31-61 35-3 3-31 11-63 19-48 11-60 11-67 1-5-10-9-10-11-2-3 7-16 0-34-17z"/><path d="M2968 1315c-10-11 42-52 229-179 149-101 175-115 193-106 11 6 20 14 20 19a1034 1034 0 0 1-301 240c-49 21-130 36-141 26zM3786 1301c-4-5 26-37 66-70s109-99 153-147c58-64 93-94 133-112 29-13 56-22 59-18 9 8-133 190-193 246-67 64-203 126-218 101zM2454 1170c-73-63-74-64-74-166v-92l38 10c55 14 178 76 199 100 18 21 18 21-2 13-51-20-155-48-161-43-9 9 15 116 37 167 11 24 17 46 15 48s-26-15-52-37zM2297 648c-81-157-87-172-70-182 10-6 93-10 193-10a788 788 0 0 1 357 52c6 4-91 7-217 7-151 0-233 4-240 11-8 8 2 34 34 95 30 57 47 102 51 142 12 98-13 71-108-115zM2975 528c34-112 168-255 372-398 52-36 64-41 78-30 23 19 18 34-17 55-18 10-51 35-73 55s-62 52-90 70a950 950 0 0 0-212 208c-46 63-70 80-58 40z"/></g><g fill="#919CD5" style="transform:none"><path d="M273 4672c-30-19-95-264-132-502a3079 3079 0 0 1 163-1569c276-706 811-1282 1526-1641 210-106 430-190 430-166 0 12-110 86-127 86-15 0-423 240-530 311a5280 5280 0 0 0-487 379 2845 2845 0 0 0-825 1555c-55 309-66 435-65 750 0 209 18 382 63 612 34 171 30 214-16 185zM2095 1754l-42-14c-1 0-9-13-18-30-33-64-7-139 64-187 26-18 48-23 97-23 56 0 67 4 93 28 17 15 31 36 32 47 5 58-3 86-31 119-53 59-129 83-195 60z"/></g><g fill="#ACB5E2" style="transform:none"><path d="M883 2902c-37-6-73-58-73-105 0-78 68-162 142-173 52-9 98 34 105 98 11 97-84 195-174 180zM1146 2516c-167-63-177-278-23-506 45-66 173-196 244-247 117-84 287-128 393-103 57 14 120 62 146 111 37 73-3 258-82 377-82 124-261 274-418 350-64 31-200 40-260 18zM2095 1754l-42-14c-1 0-9-13-18-30-33-64-7-139 64-187 26-18 48-23 97-23 56 0 67 4 93 27 17 16 31 37 32 48 5 58-3 86-31 119-53 59-129 83-195 60z"/></g></svg>